<svg width="29.999878" height="14.999939" viewBox="0 0 29.9999 14.9999" fill="none" xmlns="http://www.w3.org/2000/svg" xmlns:xlink="http://www.w3.org/1999/xlink">
	<path id="Vector" d="M0.93 1.87L29.06 1.87C29.58 1.87 29.99 1.45 29.99 0.93C29.99 0.41 29.57 0 29.06 0L0.93 0C0.41 0 0 0.42 0 0.93C0 1.45 0.42 1.87 0.93 1.87Z" fill="#000000" fill-opacity="1.000000" fill-rule="nonzero"/>
	<path id="Vector" d="M29.06 6.56L0.93 6.56C0.41 6.56 0 6.98 0 7.49C0 8.01 0.42 8.43 0.93 8.43L29.06 8.43C29.58 8.43 29.99 8.01 29.99 7.49C29.99 6.98 29.58 6.56 29.06 6.56Z" fill="#000000" fill-opacity="1.000000" fill-rule="nonzero"/>
	<path id="Vector" d="M29.06 13.12L10.31 13.12C9.79 13.12 9.37 13.54 9.37 14.06C9.37 14.57 9.79 14.99 10.31 14.99L29.06 14.99C29.58 14.99 29.99 14.57 29.99 14.06C30 13.54 29.58 13.12 29.06 13.12Z" fill="#000000" fill-opacity="1.000000" fill-rule="nonzero"/>
</svg>
